# xmcd CD database file
# 
# Track frame offsets:
# 	182
# 	16987
# 	30915
# 	47150
# 	60377
# 	75942
# 	91882
# 	105855
# 	121070
# 	134895
# 	154167
# 	167307
# 	182285
# 	196300
# 	212725
# 	225800
# 	244087
# 	260182
# 	273392
# 	295305
# 	311380
# 	327072
# 
# Disc length: 4536 seconds
# 
# Submitted via: Nero 5.5.4.0
# 
# Revision: 0
# Processed by: cddbd v1.4PL0 Copyright (c) Steve Scherf et al.
#
DISCID=1211b616
DTITLE=Various Artist - The Most Awesome LINE DANCING ALBUM 3
DYEAR=1900
DGENRE=
TTITLE0=Billy Dean - This Girl's Been Spyin' On Me
TTITLE1=Lee Kernaghan - Cowgirls Do
TTITLE2=Gina Jefferies and Tania Kernaghan - Men
TTITLE3=Tanya Tucker - San Antonio Stroll
TTITLE4=Eddie Rabbitt - Someone Could Lose A Heart Tonight
TTITLE5=Steve Wariner - Road trippin'
TTITLE6=Jo-el Sonnier - All American Saterday Night
TTITLE7=Eddy raven - In A Letter To You
TTITLE8=Asleep At The Wheel - Meanwhile Back At The Ranch
TTITLE9=Pirates Of The Mississippi - Dream You
TTITLE10=The Ranch - Walkin' the Country
TTITLE11=Suzy Bogguss - No Way Out
TTITLE12=Palomino Road - That's Where I Draw The Line
TTITLE13=Emillio - She Loves Me, She Loves Me Not
TTITLE14=Pixie Jenkins - Dancin' the Line
TTITLE15=Chris LeDoux - Honky Tonk World
TTITLE16=Wild Rose - Hillbilly Twist
TTITLE17=Shannondoah - All Over But the Shootin'
TTITLE18=Deanna Carter - Strawberry Wine
TTITLE19=Trace Adkins - 634-5789
TTITLE20=George Ducas - Every time she passes By
TTITLE21=Charlie Danials - Gone for Real
EXTD=
EXTT0=
EXTT1=
EXTT2=
EXTT3=
EXTT4=
EXTT5=
EXTT6=
EXTT7=
EXTT8=
EXTT9=
EXTT10=
EXTT11=
EXTT12=
EXTT13=
EXTT14=
EXTT15=
EXTT16=
EXTT17=
EXTT18=
EXTT19=
EXTT20=
EXTT21=
PLAYORDER=
